<svg width="12" height="12" viewBox="0 0 12 12" fill="none" xmlns="http://www.w3.org/2000/svg">
<path fill-rule="evenodd" clip-rule="evenodd" d="M5.4 0C8.38234 0 10.8 2.41766 10.8 5.4C10.8 6.67487 10.3582 7.84655 9.61938 8.77031L11.8243 10.9757C12.0586 11.2101 12.0586 11.59 11.8243 11.8243C11.608 12.0406 11.2676 12.0572 11.0323 11.8742L10.9757 11.8243L8.77031 9.61938C7.84655 10.3582 6.67487 10.8 5.4 10.8C2.41766 10.8 0 8.38234 0 5.4C0 2.41766 2.41766 0 5.4 0ZM5.4 1.2C3.0804 1.2 1.2 3.0804 1.2 5.4C1.2 7.7196 3.0804 9.6 5.4 9.6C7.7196 9.6 9.6 7.7196 9.6 5.4C9.6 3.0804 7.7196 1.2 5.4 1.2Z" fill="#F1F1F1"/>
</svg>
